<?xml version="1.0" encoding="utf-8"?>
<!-- Generator: Adobe Illustrator 19.0.0, SVG Export Plug-In . SVG Version: 6.00 Build 0)  -->
<svg version="1.1" id="Layer_1" xmlns="http://www.w3.org/2000/svg" xmlns:xlink="http://www.w3.org/1999/xlink" x="0px" y="0px"
	 viewBox="-49 141 512 512" style="enable-background:new -49 141 512 512;" xml:space="preserve">
<style type="text/css">
	.st0{fill:#FFA81E;stroke:#FFFFFF;stroke-miterlimit:10;}
	.st1{fill:#FF8800;}
	.st2{fill:#3C3A41;}
	.st3{fill:#FFFFFF;}
	.st4{font-family:'HaloHandletter';}
	.st5{font-size:212.2155px;}
	.st6{font-size:113.8944px;}
</style>
<path class="st0" d="M381.9,572.1c-96.5,96.6-252.9,96.7-349.5,0.3c-0.1-0.1-0.2-0.2-0.3-0.3c-96.6-96.7-96.6-253.5,0-350.2
	c96.6-96.7,253.2-96.7,349.9,0c0.2,0.2,0.4,0.4,0.5,0.5C478.5,319.2,478.3,475.6,381.9,572.1z"/>
<path class="st1" d="M381.9,572.1c-96.5,96.6-252.9,96.7-349.5,0.3l350-350C478.5,319.2,478.3,475.6,381.9,572.1z"/>
<path class="st2" d="M462.7,397c0-68.4-26.6-132.7-74.9-181c0,0,0,0,0,0l0,0c0,0,0,0,0,0c-48.3-48.3-112.5-75-180.8-75
	c-68.3,0-132.5,26.6-180.8,75c-48.3,48.4-74.9,112.6-74.9,181s26.6,132.7,74.9,181c0,0,0,0,0,0l0,0c0,0,0,0,0,0
	c48.3,48.3,112.5,75,180.8,75c68.3,0,132.5-26.6,180.8-75c0,0,0,0,0,0l0,0c0,0,0,0,0,0C436.1,529.7,462.7,465.4,462.7,397z
	 M381.8,560.2L272,450.3c46.9-43.8,109.4-66.9,173.6-64.1C448.4,448.5,427.2,511.6,381.8,560.2z M-30.3,424.5
	c3.1,0.1,6.2,0.2,9.2,0.2c64.9,0,127.4-24.7,174.8-69.2l41.4,41.5l-163,163.2C-3.8,521.5-24.7,473.7-30.3,424.5z M207,408.8
	l41.4,41.5c-46.6,49.8-71.4,116.2-68.9,184.4C128.8,629,81.7,607.2,44,572L207,408.8z M218.8,397l68.9-68.9c3.3-3.3,3.3-8.5,0-11.8
	c-3.3-3.3-8.5-3.3-11.8,0L207,385.2l-41.4-41.5c46.6-49.8,71.4-116.2,68.9-184.4c50.7,5.8,97.9,27.5,135.5,62.7l-60.8,60.9
	c-3.3,3.3-3.3,8.5,0,11.8c1.6,1.6,3.8,2.4,5.9,2.4c2.1,0,4.3-0.8,5.9-2.4l60.8-60.9c36,38.7,56.9,86.4,62.5,135.7
	c-68.1-2.5-134.4,22.4-184.1,69L218.8,397z M217.7,157.9c2.9,64.3-20.2,127-64,174L44,222c44.4-41.5,102-64.3,163-64.3
	C210.6,157.7,214.2,157.8,217.7,157.9z M32.2,233.8l109.8,109.9c-46.9,43.8-109.4,66.9-173.6,64C-34.4,345.5-13.2,282.5,32.2,233.8z
	 M196.3,636.1c-2.9-64.3,20.2-127,64-173.9L370,572c-44.4,41.5-102,64.3-163,64.3C203.4,636.3,199.8,636.2,196.3,636.1z"/>
<text transform="matrix(1 0 0 1 3.4276 372.7703)"><tspan x="0" y="0" class="st3 st4 st5">Ballers</tspan><tspan x="94.8" y="56" class="st3 st4 st6">Without</tspan><tspan x="2.9" y="176.2" class="st3 st4 st5">Violence</tspan></text>
</svg>
